<svg width="416" height="403" viewBox="0 0 416 403" fill="none" xmlns="http://www.w3.org/2000/svg">
<g clip-path="url(#clip0_1622_371)">
<path d="M233.781 315.205C284.787 277.662 294.617 204.406 255.737 151.583C216.857 98.7601 143.99 86.3729 92.9836 123.916C41.9775 161.458 32.1475 234.714 71.0276 287.537C109.908 340.36 182.775 352.748 233.781 315.205Z" fill="#151515"/>
<path d="M211.592 285.057C246.521 259.348 253.253 209.182 226.627 173.008C200.002 136.835 150.103 128.352 115.173 154.061C80.2443 179.771 73.5127 229.937 100.138 266.11C126.763 302.284 176.663 310.766 211.592 285.057Z" fill="white"/>
<path d="M401.03 192.454L141.595 383.41L155.691 402.562L415.127 211.606L401.03 192.454Z" fill="#151515"/>
</g>
<defs>
<clipPath id="clip0_1622_371">
<rect width="322.135" height="261.583" fill="white" transform="translate(0.628906 191.893) rotate(-36.3547)"/>
</clipPath>
</defs>
</svg>
